<svg xmlns="http://www.w3.org/2000/svg" viewBox="0 0 53 64">
  <path d="M1.5,1.5c0,40.39,4.98,61,25,61S51.5,41.89,51.5,1.5" fill="none" stroke="#1c3054" stroke-linecap="round" stroke-linejoin="round" stroke-width="2"/>
  <path d="M30.36,32.74c.73,3.4-.39,6.5-3.54,6.5-3.14,0-4.26-3.1-3.54-6.5.77-3.59,1.32-7.36,1.61-11.02" fill="none" stroke="#1c3054" stroke-linecap="round" stroke-linejoin="round" stroke-width="2"/>
  <circle cx="37.07" cy="24.22" r="2.38" fill="none" stroke="#1c3054" stroke-linecap="round" stroke-linejoin="round" stroke-width="2"/>
  <circle cx="15.93" cy="24.22" r="2.38" fill="none" stroke="#1c3054" stroke-linecap="round" stroke-linejoin="round" stroke-width="2"/>
  <path d="M36.94,49.76c-5.77-5.77-15.11-5.77-20.89,0" fill="none" stroke="#1c3054" stroke-linecap="round" stroke-linejoin="round" stroke-width="2"/>
  <line x1="8.64" y1="11.02" x2="8.64" y2="1.5" fill="none" stroke="#1c3054" stroke-linecap="round" stroke-linejoin="round" stroke-width="2"/>
  <line x1="15.79" y1="11.02" x2="15.79" y2="1.5" fill="none" stroke="#1c3054" stroke-linecap="round" stroke-linejoin="round" stroke-width="2"/>
  <line x1="22.93" y1="11.02" x2="22.93" y2="1.5" fill="none" stroke="#1c3054" stroke-linecap="round" stroke-linejoin="round" stroke-width="2"/>
  <line x1="30.07" y1="11.02" x2="30.07" y2="1.5" fill="none" stroke="#1c3054" stroke-linecap="round" stroke-linejoin="round" stroke-width="2"/>
  <line x1="37.21" y1="11.02" x2="37.21" y2="1.5" fill="none" stroke="#1c3054" stroke-linecap="round" stroke-linejoin="round" stroke-width="2"/>
  <line x1="44.36" y1="11.02" x2="44.36" y2="1.5" fill="none" stroke="#1c3054" stroke-linecap="round" stroke-linejoin="round" stroke-width="2"/>
</svg>