<?xml version="1.0" encoding="UTF-8"?>
<svg id="Layer_1" xmlns="http://www.w3.org/2000/svg" version="1.1" viewBox="0 0 500 620">
  <!-- Generator: Adobe Illustrator 29.3.1, SVG Export Plug-In . SVG Version: 2.1.0 Build 151)  -->
  <g>
    <rect x="5" y="338.1" width="445.45" height="277.88" fill="#00e59e" stroke="#213052" stroke-linecap="round" stroke-linejoin="round" stroke-width="5"/>
    <rect x="333.79" y="454.77" width="277.88" height="44.55" transform="translate(949.77 4.32) rotate(90)" fill="#00a07f" stroke="#213052" stroke-linecap="round" stroke-linejoin="round" stroke-width="5"/>
  </g>
  <g>
    <rect x="483.86" y="4.01" width="11.14" height="334.09" fill="#2470c7" stroke="#213052" stroke-linecap="round" stroke-linejoin="round" stroke-width="5"/>
    <path d="M38.41,4.01v334.09h445.45V4.01H38.41ZM266.7,122.7c-15.8-2.65-27.84-16.39-27.84-32.94s12.04-30.29,27.84-32.94c15.8,2.65,27.84,16.39,27.84,32.94s-12.04,30.29-27.84,32.94Z" fill="#39e8ff" stroke="#213052" stroke-linecap="round" stroke-linejoin="round" stroke-width="5"/>
  </g>
  <g opacity=".5">
    <path d="M419.59,338.1c-12.26-36.06-38.02-67.43-91.09-81.38-10.96,49.89-33.52,68.82-67.37,68.82s-56.41-18.93-67.37-68.82c-53.07,13.95-78.82,45.33-91.09,81.38h316.91Z" fill="#ff4761" stroke="#213052" stroke-linecap="round" stroke-linejoin="round" stroke-width="5"/>
    <g>
      <g>
        <path d="M349,188.45c-.82,19.06-5.83,28.58-14.84,28.2-9.01-.39-13.19-10.31-12.37-29.36.28-6.6,3.93-11.8,14.12-11.36,10.19.44,13.38,5.93,13.09,12.53Z" fill="#ffabc9" stroke="#213052" stroke-linecap="round" stroke-linejoin="round" stroke-width="5"/>
        <path d="M173.28,188.45c.82,19.06,5.83,28.58,14.84,28.2,9.01-.39,13.19-10.31,12.37-29.36-.28-6.6-3.93-11.8-14.12-11.36-10.19.44-13.38,5.93-13.09,12.53Z" fill="#ffabc9" stroke="#213052" stroke-linecap="round" stroke-linejoin="round" stroke-width="5"/>
      </g>
      <path d="M336.23,164.95c0,119.8-25.39,160.59-75.09,160.59s-75.09-40.79-75.09-160.59c0-41.47,18.86-75.09,75.09-75.09s75.09,33.62,75.09,75.09Z" fill="#ffabc9" stroke="#213052" stroke-linecap="round" stroke-linejoin="round" stroke-width="5"/>
      <path d="M186.36,187.22c4.59,0,8.99-1.83,12.22-5.08s5.04-7.66,5.01-12.25c-.01-1.63-.02-3.28-.02-4.93,0-18.27,4.1-32.27,12.19-41.64,2.02-2.34,4.99-3.64,8.08-3.54,3.09.1,5.97,1.59,7.83,4.05,2.46,3.25,5.07,5.99,7.8,8.21,6.23,5.05,13.31,7.51,21.66,7.51s19.1-1.98,29.49-15.71c1.86-2.46,4.73-3.95,7.82-4.05,3.08-.1,6.04,1.2,8.06,3.53,8.09,9.36,12.19,23.37,12.19,41.64,0,1.66,0,3.3-.02,4.93-.03,4.59,1.77,9,5.01,12.25,3.23,3.25,7.63,5.08,12.22,5.08.21-7.18.31-14.6.31-22.27,0-41.47-18.86-75.09-75.09-75.09s-75.09,33.62-75.09,75.09c0,7.66.11,15.09.31,22.27Z" fill="#52d6f8" stroke="#213052" stroke-linecap="round" stroke-linejoin="round" stroke-width="5"/>
      <path d="M240.61,274.8c11.35,11.35,29.71,11.35,41.06,0" fill="none" stroke="#213052" stroke-linecap="round" stroke-linejoin="round" stroke-width="5"/>
      <g>
        <path d="M227.12,176.51c5.2,5.2,13.61,5.2,18.81,0" fill="none" stroke="#213052" stroke-linecap="round" stroke-linejoin="round" stroke-width="5"/>
        <path d="M276.35,176.51c5.2,5.2,13.61,5.2,18.81,0" fill="none" stroke="#213052" stroke-linecap="round" stroke-linejoin="round" stroke-width="5"/>
      </g>
      <path d="M270.91,243.5c1.84,8.62-1,16.46-8.96,16.46-7.96,0-10.8-7.84-8.96-16.46,1.94-9.08,6-35.98,6-66.81" fill="none" stroke="#213052" stroke-linecap="round" stroke-linejoin="round" stroke-width="5"/>
      <path d="M186.36,187.22c4.59,0,8.99-1.83,12.22-5.08s5.04-7.66,5.01-12.25c-.01-1.63-.02-3.28-.02-4.93,0-18.27,4.1-32.27,12.19-41.64,2.02-2.34,4.99-3.64,8.08-3.54,3.09.1,5.97,1.59,7.83,4.05,2.46,3.25,5.07,5.99,7.8,8.21,6.23,5.05,13.31,7.51,21.66,7.51s19.1-1.98,29.49-15.71c1.86-2.46,4.73-3.95,7.82-4.05,3.08-.1,6.04,1.2,8.06,3.53,8.09,9.36,12.19,23.37,12.19,41.64,0,1.66,0,3.3-.02,4.93-.03,4.59,1.77,9,5.01,12.25,3.23,3.25,7.63,5.08,12.22,5.08.21-7.18.31-14.6.31-22.27,0-41.47-18.86-75.09-75.09-75.09s-75.09,33.62-75.09,75.09c0,7.66.11,15.09.31,22.27Z" fill="#ffc200" stroke="#213052" stroke-linecap="round" stroke-linejoin="round" stroke-width="5"/>
    </g>
  </g>
  <g>
    <path d="M372.5,338.1h-222.73c0-18.45,14.96-33.41,33.41-33.41h155.91c18.45,0,33.41,14.96,33.41,33.41Z" fill="#2470c7" stroke="#213052" stroke-linecap="round" stroke-linejoin="round" stroke-width="5"/>
    <path d="M339.09,304.69h-144.77c-18.45,0-33.41,14.96-33.41,33.41h211.59c0-18.45-14.96-33.41-33.41-33.41Z" fill="#ff4761" stroke="#213052" stroke-linecap="round" stroke-linejoin="round" stroke-width="5"/>
    <path d="M308.1,304.69h-93.92c11.92,14.65,27.59,20.84,46.96,20.84s35.04-6.2,46.96-20.84Z" fill="#ffabc9" stroke="#213052" stroke-linecap="round" stroke-linejoin="round" stroke-width="5"/>
  </g>
  <g>
    <path d="M238.86,89.76c0-16.55,12.04-30.29,27.84-32.94-1.81-.3-3.67-.47-5.57-.47-18.45,0-33.41,14.96-33.41,33.41s14.96,33.41,33.41,33.41c1.9,0,3.76-.17,5.57-.47-15.8-2.65-27.84-16.39-27.84-32.94Z" fill="#2470c7" stroke="#213052" stroke-linecap="round" stroke-linejoin="round" stroke-width="5"/>
    <path d="M261.14,89.86c-8.18,0-15.54.73-22.19,2.07,1,15.57,12.66,28.23,27.76,30.77,14.14-2.37,25.26-13.62,27.44-27.82-9.19-3.23-20.11-5.02-33.01-5.02Z" fill="#ffc200" stroke="#213052" stroke-linecap="round" stroke-linejoin="round" stroke-width="5"/>
  </g>
</svg>