<svg xmlns="http://www.w3.org/2000/svg" version="1.1" viewBox="0 0 26 20">
  <path d="M23.46,20h-14.89c-1.41,0-2.55-1.15-2.55-2.55v-5.29L.21,6.77c-.2-.2-.26-.5-.15-.76s.36-.43.65-.43h5.31v-3.03c0-1.41,1.15-2.55,2.55-2.55h14.88c1.41,0,2.55,1.15,2.55,2.55v14.88c0,1.41-1.15,2.55-2.55,2.55h.02ZM2.39,6.97l4.82,4.39c.13.13.2.31.2.49v5.58c0,.65.52,1.16,1.16,1.16h14.88c.65,0,1.16-.52,1.16-1.16V2.55c0-.65-.52-1.16-1.16-1.16h-14.88c-.65,0-1.16.52-1.16,1.16v3.72c0,.38-.31.7-.7.7H2.39Z"/>
  <path d="M20.99,6.97h-9.94c-.38,0-.7-.31-.7-.7s.31-.7.7-.7h9.94c.38,0,.7.31.7.7s-.31.7-.7.7Z"/>
  <path d="M18.11,11.25h-7.06c-.38,0-.7-.31-.7-.7s.31-.7.7-.7h7.06c.38,0,.7.31.7.7s-.31.7-.7.7Z"/>
</svg>