<svg xmlns="http://www.w3.org/2000/svg" viewBox="0 0 22 20">
  <path d="M11,20c-.2,0-.41-.08-.56-.23L1.98,11.42c-1.28-1.26-1.98-2.94-1.98-4.73S.7,3.22,1.98,1.96C3.26.7,4.96,0,6.77,0c1.56,0,3.03.51,4.23,1.46,1.2-.95,2.67-1.46,4.23-1.46,1.81,0,3.51.7,4.79,1.96h0c1.28,1.26,1.98,2.94,1.98,4.73s-.71,3.47-1.98,4.73l-8.46,8.35c-.15.15-.36.23-.56.23ZM6.77,1.57c-1.39,0-2.69.53-3.67,1.5s-1.52,2.25-1.52,3.62.54,2.65,1.52,3.62l7.89,7.8,7.89-7.8c.98-.97,1.52-2.25,1.52-3.62s-.54-2.65-1.52-3.62h0c-.98-.97-2.28-1.5-3.67-1.5s-2.69.53-3.67,1.5c-.3.3-.83.3-1.12,0-.98-.97-2.28-1.5-3.67-1.5Z"/>
</svg>