<svg xmlns="http://www.w3.org/2000/svg" viewBox="0 0 203 216">
  <path d="M101.5,1.33C46.27,1.33,1.5,46.1,1.5,101.33v13.33c0-55.22,44.77-99.99,100-99.99s100,44.77,100,100c0,38.83-22.13,72.5-54.47,89.06,32.34-16.56,54.47-50.23,54.47-89.06v-13.34C201.5,46.1,156.73,1.33,101.5,1.33Z" fill="#00a07f" stroke="#213052" stroke-linecap="round" stroke-linejoin="round" stroke-width="2"/>
  <circle cx="101.5" cy="114.67" r="100" fill="#00e59e" stroke="#213052" stroke-linecap="round" stroke-linejoin="round" stroke-width="2"/>
  <circle cx="101.5" cy="114.67" r="78.95" fill="#fff" stroke="#213052" stroke-linecap="round" stroke-linejoin="round" stroke-width="2"/>
  <line x1="33.12" y1="154.15" x2="45.53" y2="146.97" fill="none" stroke="#213052" stroke-linecap="round" stroke-linejoin="round" stroke-width="2"/>
  <line x1="22.55" y1="114.67" x2="36.89" y2="114.67" fill="none" stroke="#213052" stroke-linecap="round" stroke-linejoin="round" stroke-width="2"/>
  <line x1="33.12" y1="75.19" x2="45.53" y2="82.37" fill="none" stroke="#213052" stroke-linecap="round" stroke-linejoin="round" stroke-width="2"/>
  <line x1="62.02" y1="46.29" x2="69.2" y2="58.7" fill="none" stroke="#213052" stroke-linecap="round" stroke-linejoin="round" stroke-width="2"/>
  <line x1="101.5" y1="35.73" x2="101.5" y2="50.06" fill="none" stroke="#213052" stroke-linecap="round" stroke-linejoin="round" stroke-width="2"/>
  <line x1="140.98" y1="46.29" x2="133.8" y2="58.7" fill="none" stroke="#213052" stroke-linecap="round" stroke-linejoin="round" stroke-width="2"/>
  <line x1="169.88" y1="75.19" x2="157.47" y2="82.37" fill="none" stroke="#213052" stroke-linecap="round" stroke-linejoin="round" stroke-width="2"/>
  <line x1="180.45" y1="114.67" x2="166.11" y2="114.67" fill="none" stroke="#213052" stroke-linecap="round" stroke-linejoin="round" stroke-width="2"/>
  <line x1="169.88" y1="154.15" x2="157.47" y2="146.97" fill="none" stroke="#213052" stroke-linecap="round" stroke-linejoin="round" stroke-width="2"/>
  <line x1="105.85" y1="117.18" x2="144.66" y2="139.58" fill="none" stroke="#213052" stroke-linecap="round" stroke-linejoin="round" stroke-width="2"/>
  <line x1="86.36" y1="105.93" x2="97.15" y2="112.16" fill="none" stroke="#213052" stroke-linecap="round" stroke-linejoin="round" stroke-width="2"/>
  <circle cx="101.5" cy="114.67" r="5.02" fill="#ff4761" stroke="#213052" stroke-linecap="round" stroke-linejoin="round" stroke-width="2"/>
</svg>