<?xml version="1.0" encoding="UTF-8"?>
<svg id="Layer_1" xmlns="http://www.w3.org/2000/svg" version="1.1" viewBox="0 0 250 88">
  <!-- Generator: Adobe Illustrator 29.5.0, SVG Export Plug-In . SVG Version: 2.1.0 Build 137)  -->
  <path d="M.43,25.85c0-9.11,4.9-14.71,13.91-14.71s13.86,5.6,13.86,14.71-4.8,14.66-13.86,14.66S.43,34.91.43,25.85ZM20.57,25.85c0-5.97-1.76-9.01-6.24-9.01s-6.24,3.04-6.24,9.01,1.71,8.95,6.24,8.95,6.24-3.04,6.24-8.95Z" fill="#213052"/>
  <path d="M52.39,0h7.51v39.97h-4.85l-2.4-7.25c-1.87,5.12-5.44,7.78-9.91,7.78-6.82,0-10.82-5.92-10.82-14.66s4-14.71,10.82-14.71c4.21,0,7.73,2.45,9.65,7.3V0ZM52.39,29.85v-7.94c-1.76-3.57-4.26-5.06-6.66-5.06-4,0-6.13,3.25-6.13,9.01s2.18,8.95,6.13,8.95c2.45,0,4.9-1.44,6.66-4.96Z" fill="#213052"/>
  <path d="M86.23,39.97l-7.35-12.47-4.64,4.74v7.73h-7.67V0h7.67v24.52l11.73-12.84h8.42l-10.71,10.93,11.03,17.37h-8.47Z" fill="#213052"/>
  <path d="M126.25,39.23c-.96.8-3.3,1.23-5.12,1.23-4.69,0-7.57-2.88-7.67-7.41-1.55,5.28-6.08,7.46-9.86,7.46-4.85,0-7.94-2.61-7.94-7.04,0-6.82,7.36-9.27,17.8-8.42v-3.14c0-3.3-1.6-5.28-4.8-5.28-3.89,0-5.44,2.45-5.38,6.66l-6.98-2.29c.64-6.13,4.74-9.86,12.47-9.86,8.47,0,12.26,4.1,12.26,10.77v10.45c0,1.39.64,2.13,1.76,2.13.75,0,1.87-.59,2.56-1.49l.91,6.24ZM113.46,31.34v-3.04c-6.29-.64-10.71.69-10.71,3.89,0,1.71,1.49,2.82,4,2.82s5.22-1.17,6.72-3.68Z" fill="#213052"/>
  <path d="M138.08,34.48h14.76v5.49h-23.98v-5.65l14.76-17.11h-14.76v-5.54h23.45v6.13l-14.23,16.68Z" fill="#213052"/>
  <path d="M0,78.94l6.77-1.55c.11,3.78,2.88,5.49,6.72,5.49,2.66,0,4.37-1.07,4.37-2.77,0-5.81-17.05-1.07-17.05-12.74,0-5.06,4.8-8.74,11.41-8.74,7.19,0,11.62,3.04,12.1,8.74l-6.5,1.71c-.21-4.26-3.09-5.28-5.86-5.28-2.61,0-4.32,1.12-4.32,2.88,0,6.34,17.11,1.33,17.11,12.68,0,5.01-4.9,8.63-11.62,8.63-7.62,0-12.52-3.2-13.11-9.06Z" fill="#213052"/>
  <path d="M49.24,79.58l-.32,6.72c-1.44,1.01-3.89,1.71-6.34,1.71-6.66,0-10.29-3.36-10.29-9.91v-13.32h-5.65v-5.6h5.65v-8.31h7.68v8.31h8.69v5.6h-8.69v13.54c0,2.77.96,4.05,3.14,4.05,1.6,0,3.73-.91,6.13-2.77Z" fill="#213052"/>
  <path d="M82.66,86.72c-.96.8-3.3,1.23-5.12,1.23-4.69,0-7.57-2.88-7.67-7.41-1.55,5.28-6.08,7.46-9.86,7.46-4.85,0-7.94-2.61-7.94-7.04,0-6.82,7.36-9.27,17.8-8.42v-3.14c0-3.3-1.6-5.28-4.8-5.28-3.89,0-5.44,2.45-5.38,6.66l-6.98-2.29c.64-6.13,4.74-9.86,12.47-9.86,8.47,0,12.26,4.1,12.26,10.77v10.45c0,1.39.64,2.13,1.76,2.13.75,0,1.87-.59,2.56-1.49l.91,6.24ZM69.87,78.83v-3.04c-6.29-.64-10.71.69-10.71,3.89,0,1.71,1.49,2.82,4,2.82s5.22-1.17,6.72-3.68Z" fill="#213052"/>
  <path d="M107.39,65.62c0,2.77-.75,6.08-1.97,9.43h-7.99c1.28-2.67,2.35-5.76,2.35-7.89,0-1.55-.53-2.61-1.97-2.61-1.65,0-3.25,1.39-4.48,6.66v16.26h-7.67v-28.3h4.96l2.13,8.42c1.55-6.18,4.74-8.95,8.85-8.95s5.81,2.88,5.81,6.98Z" fill="#213052"/>
  <path d="M110.37,73.34c0-9.11,4.9-14.71,13.91-14.71s13.86,5.6,13.86,14.71-4.8,14.66-13.86,14.66-13.91-5.6-13.91-14.66ZM130.52,73.34c0-5.97-1.76-9.01-6.24-9.01s-6.24,3.04-6.24,9.01,1.71,8.95,6.24,8.95,6.24-3.04,6.24-8.95Z" fill="#213052"/>
  <path d="M190.63,79.58l-.32,6.72c-1.44,1.01-3.89,1.71-6.34,1.71-6.66,0-10.29-3.36-10.29-9.91v-13.32h-5.65v-5.6h5.65v-8.31h7.68v8.31h8.69v5.6h-8.69v13.54c0,2.77.96,4.05,3.14,4.05,1.6,0,3.73-.91,6.13-2.77Z" fill="#213052"/>
  <path d="M213.5,59.17h7.67v28.3h-5.81l-1.6-8.58c-1.39,4.96-4.69,9.11-10.5,9.11-5.12,0-8.42-3.36-8.42-9.54v-19.29h7.62v17.37c0,3.41,1.65,5.22,4.48,5.22,3.14,0,5.33-2.24,6.56-4.85v-17.75Z" fill="#213052"/>
  <path d="M149.01,66.68c0-1.76,1.71-2.88,4.32-2.88,2.77,0,5.65,1.01,5.86,5.28l6.5-1.71c-.19-2.29-1.03-4.15-2.42-5.55-.81.51-1.78.81-2.84.82-.07,0-.15,0-.22,0-1.53,0-2.98-.66-3.98-1.81-.55-.63-.92-1.36-1.12-2.16-.49-.03-.99-.05-1.51-.05-6.61,0-11.41,3.68-11.41,8.74,0,11.67,17.05,6.93,17.05,12.74,0,1.71-1.71,2.77-4.37,2.77-3.84,0-6.61-1.71-6.72-5.49l-6.77,1.55c.59,5.86,5.49,9.06,13.11,9.06,6.72,0,11.62-3.62,11.62-8.63,0-11.35-17.11-6.34-17.11-12.68Z" fill="#213052"/>
  <path d="M246.05,22.8c-6.96,8.07-12.37,11.41-16.59,11.41-2.52,0-4.22-1.26-4.44-4.89,1.19-.07,2.37-.22,3.41-.52,6.89-1.78,12.89-7.18,12.89-14.37,0-3.11-1.78-6.52-6-6.52h-.24s-.02,0-.06,0h-.3c-.07,0-.15.07-.15.07h-.3c-.07,0-.15.07-.22.07h-.07c-.07,0-.15.07-.3.07-1.04.3-2.07.81-3.11,1.48l-.07.07h-.07c-4.37,3.11-8.44,9.41-11.56,13.11-7.18,8.81-10.44,10.3-11.33,10.3l-.15.07s0,0-.01,0c.1-.13.24-.49.24-1.34,0-2.89,1.85-9.63,3.11-14.59.52-2-.37-4.15-3.7-3.7-1.11.15-2.52.22-3.7.22.74-2.15,1.11-4.07,1.11-5.7,0-2.22-1.04-3.93-3.19-3.93-3.11,0-5.56,4.67-5.56,8.52,0,1.56.59,2.81,1.63,3.78-1.04,2-2.52,4.15-4.37,6.37-3.11,3.78-5.93,6.22-8.37,7.85,2.74-4.74,4.37-10.89,4.37-15.48,0-3.63-1.41-8-5.41-8-4.3,0-9.04,6-12.81,12.44.81-3.48,1.48-6.3,1.93-8.22.81-2.74-3.7-3.85-4.3-.96-1.93,7.93-7.93,33.18-10.15,45.78-.22,1.63,1.04,2.59,2.22,2.52,1.04,0,1.93-.52,2.22-1.78.15-1.11.37-2.3.59-3.41.3-1.63.67-3.41,1.04-5.33.96-4.44,2.15-8.82,3.78-13.19,1.85,2.07,4.22,3.26,6.67,3.26,4.89,0,12.52-1.78,21.63-12.66,0,0,0,0,0,0,2.15-2.67,3.78-5.19,5.04-7.56,1.33.22,2.89.22,4.52.07-1.26,4.67-2.74,10.07-2.74,13.7,0,3.26,1.48,5.7,4.37,5.7,3.13,0,6.96-2.64,13.08-9.92-.03.37-.05.74-.05,1.1,0,6.15,3.41,9.93,8.89,9.93,6.89,0,12.74-4.52,20-13.04,1.85-2.07-1.48-5.11-3.41-2.81ZM231.46,15.02c1.48-1.56,2.81-2.52,3.7-2.67h.15c1.19,0,1.63.89,1.63,2.07,0,4.22-5.04,8.89-9.56,10.07-.59.15-1.19.22-1.7.3,1.11-3.63,3.48-7.33,5.78-9.78ZM174.72,33.83c-1.04,0-2.67-.81-3.78-2.3-.3-.44-.74-.74-1.19-.89,3.85-8.52,10.96-18.81,13.41-18.81.81,0,1.33,1.41,1.33,3.33,0,8.3-5.93,18.67-9.78,18.67Z" fill="#213052"/>
</svg>