<svg width="168" height="213" viewBox="0 0 168 213" fill="none" xmlns="http://www.w3.org/2000/svg">
<path d="M124.24 99.3703L16.8403 55.7703C2.97026 50.1403 -5.56974 71.1103 8.32026 76.7503L100.14 114.02" fill="#39E8FF"/>
<path d="M124.24 99.3703L16.8403 55.7703C2.97026 50.1403 -5.56974 71.1103 8.32026 76.7503L100.14 114.02" stroke="#1C3054" stroke-width="1.5" stroke-linecap="round" stroke-linejoin="round"/>
<path d="M109.47 95.1399L48.8103 168.38L77.4803 198.68C97.7203 220.06 124.85 214.01 146.23 193.78C167.61 173.55 175.15 146.79 154.91 125.4L149.98 120.19L109.46 95.1299L109.47 95.1399Z" fill="#39E8FF" stroke="#1C3054" stroke-width="1.5" stroke-linecap="round" stroke-linejoin="round"/>
<path d="M89.9379 16.4057L31.4108 26.6098C24.8818 27.7481 20.5119 33.9636 21.6502 40.4926L45.0469 174.688C46.1852 181.217 52.4008 185.587 58.9297 184.449L117.457 174.245C123.986 173.106 128.356 166.891 127.217 160.362L103.821 26.1663C102.682 19.6374 96.4668 15.2674 89.9379 16.4057Z" fill="white" stroke="#1C3054" stroke-width="1.5" stroke-linecap="round" stroke-linejoin="round"/>
<path d="M85.0603 168.78C89.1251 168.78 92.4203 165.484 92.4203 161.42C92.4203 157.355 89.1251 154.06 85.0603 154.06C80.9954 154.06 77.7003 157.355 77.7003 161.42C77.7003 165.484 80.9954 168.78 85.0603 168.78Z" fill="white" stroke="#1C3054" stroke-width="1.5" stroke-linecap="round" stroke-linejoin="round"/>
<path d="M151.86 122.16C141.34 111.05 133.3 98.2098 127.96 83.9898C125.73 78.0698 119.13 75.0798 113.22 77.3098C107.3 79.5398 104.31 86.1398 106.54 92.0498C111.42 105.02 118.17 117.03 126.65 127.9" fill="#39E8FF"/>
<path d="M151.86 122.16C141.34 111.05 133.3 98.2098 127.96 83.9898C125.73 78.0698 119.13 75.0798 113.22 77.3098C107.3 79.5398 104.31 86.1398 106.54 92.0498C111.42 105.02 118.17 117.03 126.65 127.9" stroke="#1C3054" stroke-width="1.5" stroke-linecap="round" stroke-linejoin="round"/>
<path d="M122.11 92.8794C125.16 96.0994 129.51 97.3195 133.56 96.5294C131.45 92.4794 129.57 88.2994 127.95 83.9894C126.7 80.6594 124.06 78.2595 120.94 77.1895C117.63 81.9395 117.98 88.5094 122.11 92.8794Z" fill="#39E8FF" stroke="#1C3054" stroke-width="1.5" stroke-linecap="round" stroke-linejoin="round"/>
<path d="M136.97 115.2L142.93 111.51" stroke="#1C3054" stroke-width="1.5" stroke-linecap="round" stroke-linejoin="round"/>
<path d="M134.31 110.9L140 107.37" stroke="#1C3054" stroke-width="1.5" stroke-linecap="round" stroke-linejoin="round"/>
<path d="M28.8303 159.38L47.2603 166.86C61.3403 172.57 69.9503 151.3 55.8903 145.59L37.4603 138.11C26.0503 133.48 17.4303 154.75 28.8303 159.38Z" fill="#39E8FF" stroke="#1C3054" stroke-width="1.5" stroke-linecap="round" stroke-linejoin="round"/>
<path d="M47.2403 146.83L54.2403 149.67C59.0203 151.61 59.2803 155.83 58.0503 158.86C56.8203 161.89 53.7003 164.72 48.9203 162.78L41.9203 159.94L47.2403 146.83Z" fill="#39E8FF" stroke="#1C3054" stroke-width="1.5" stroke-linecap="round" stroke-linejoin="round"/>
<path d="M24.0103 132.66L42.4403 140.14C56.5203 145.85 65.1303 124.58 51.0703 118.87L32.6403 111.39C21.2303 106.76 12.6103 128.03 24.0103 132.66Z" fill="#39E8FF" stroke="#1C3054" stroke-width="1.5" stroke-linecap="round" stroke-linejoin="round"/>
<path d="M42.4202 120.11L49.4202 122.95C54.2003 124.89 54.4603 129.11 53.2303 132.14C52.0003 135.17 48.8803 138 44.1003 136.06L37.1003 133.22L42.4202 120.11Z" fill="#39E8FF" stroke="#1C3054" stroke-width="1.5" stroke-linecap="round" stroke-linejoin="round"/>
<path d="M19.1903 105.93L37.6203 113.41C51.7003 119.12 60.3103 97.85 46.2503 92.14L27.8203 84.66C16.4103 80.03 7.79026 101.3 19.1903 105.93Z" fill="#39E8FF" stroke="#1C3054" stroke-width="1.5" stroke-linecap="round" stroke-linejoin="round"/>
<path d="M37.6003 93.3799L44.6003 96.2199C49.3803 98.1599 49.6403 102.38 48.4103 105.41C47.1803 108.43 44.0603 111.27 39.2803 109.33L32.2803 106.49L37.6003 93.3799Z" fill="#39E8FF" stroke="#1C3054" stroke-width="1.5" stroke-linecap="round" stroke-linejoin="round"/>
<path d="M95.9402 10.81L98.1403 1" stroke="#1C3054" stroke-width="1.5" stroke-linecap="round" stroke-linejoin="round"/>
<path d="M102.22 13.5901L108 5.37012" stroke="#1C3054" stroke-width="1.5" stroke-linecap="round" stroke-linejoin="round"/>
<path d="M106.96 18.5499L115.44 13.1699" stroke="#1C3054" stroke-width="1.5" stroke-linecap="round" stroke-linejoin="round"/>
</svg>
